{
  "accessors": [
    {
      "bufferView": 2,
      "componentType": 5126,
      "count": 12816,
      "max": [
        1.0220140218734741,
        0.36716187000274658,
        1.491295337677002
      ],
      "min": [
        -1.0220140218734741,
        -0.10264267027378082,
        -0.069256357848644257
      ],
      "type": "VEC3"
    },
    {
      "bufferView": 2,
      "byteOffset": 153792,
      "componentType": 5126,
      "count": 12816,
      "max": [
        0.99873024225234985,
        0.99972021579742432,
        0.99847769737243652
      ],
      "min": [
        -0.99873024225234985,
        -0.99994343519210815,
        -0.99978452920913696
      ],
      "type": "VEC3"
    },
    {
      "bufferView": 1,
      "componentType": 5126,
      "count": 12816,
      "max": [
        0.98243999481201172,
        0.97544401884078979
      ],
      "min": [
        0.015302999876439571,
        0.022933999076485634
      ],
      "type": "VEC2"
    },
    {
      "bufferView": 0,
      "componentType": 5125,
      "count": 12816,
      "max": [
        12815
      ],
      "min": [
        0
      ],
      "type": "SCALAR"
    },
    {
      "bufferView": 2,
      "byteOffset": 307584,
      "componentType": 5126,
      "count": 762,
      "max": [
        0.0038436464965343475,
        0.34908786416053772,
        1.2397924661636353
      ],
      "min": [
        -0.057975523173809052,
        0.27174261212348938,
        1.1401897668838501
      ],
      "type": "VEC3"
    },
    {
      "bufferView": 2,
      "byteOffset": 316728,
      "componentType": 5126,
      "count": 762,
      "max": [
        0.99921202659606934,
        0.98225009441375732,
        0.99716895818710327
      ],
      "min": [
        -0.99862289428710938,
        -0.99703520536422729,
        -0.99802076816558838
      ],
      "type": "VEC3"
    },
    {
      "bufferView": 1,
      "byteOffset": 102528,
      "componentType": 5126,
      "count": 762,
      "max": [
        0.9967120885848999,
        0.95083862543106079
      ],
      "min": [
        0.0059635238721966743,
        0.026964243501424789
      ],
      "type": "VEC2"
    },
    {
      "bufferView": 0,
      "byteOffset": 51264,
      "componentType": 5125,
      "count": 4392,
      "max": [
        761
      ],
      "min": [
        0
      ],
      "type": "SCALAR"
    }
  ],
  "asset": {
    "extras": {
      "author": "StrangeUsernames1 (https://sketchfab.com/StrangeUsernames1)",
      "license": "CC-BY-4.0 (http://creativecommons.org/licenses/by/4.0/)",
      "source": "https://sketchfab.com/3d-models/geonosian-zombie-021a5902e34c4742a828335c86bfe4cd",
      "title": "Geonosian Zombie"
    },
    "generator": "Sketchfab-9.19.0",
    "version": "2.0"
  },
  "bufferViews": [
    {
      "buffer": 0,
      "byteLength": 68832,
      "byteOffset": 0,
      "name": "floatBufferViews",
      "target": 34963
    },
    {
      "buffer": 0,
      "byteLength": 108624,
      "byteOffset": 68832,
      "byteStride": 8,
      "name": "floatBufferViews",
      "target": 34962
    },
    {
      "buffer": 0,
      "byteLength": 325872,
      "byteOffset": 177456,
      "byteStride": 12,
      "name": "floatBufferViews",
      "target": 34962
    }
  ],
  "buffers": [
    {
      "byteLength": 503328,
      "uri": "scene.bin"
    }
  ],
  "images": [
    {
      "uri": "textures/Material_1_baseColor.png"
    },
    {
      "uri": "textures/chr_m_189_baseColor.png"
    }
  ],
  "materials": [
    {
      "doubleSided": true,
      "emissiveFactor": [
        0,
        0,
        0
      ],
      "name": "Material_1",
      "pbrMetallicRoughness": {
        "baseColorFactor": [
          1,
          1,
          1,
          1
        ],
        "baseColorTexture": {
          "index": 0,
          "texCoord": 0
        },
        "metallicFactor": 0.23883680207212302,
        "roughnessFactor": 0.82111456180001685
      }
    },
    {
      "doubleSided": true,
      "emissiveFactor": [
        0,
        0,
        0
      ],
      "name": "chr_m_189",
      "pbrMetallicRoughness": {
        "baseColorFactor": [
          1,
          1,
          1,
          1
        ],
        "baseColorTexture": {
          "index": 1,
          "texCoord": 0
        },
        "metallicFactor": 0,
        "roughnessFactor": 0.99585345514814205
      }
    }
  ],
  "meshes": [
    {
      "name": "Char_Geonosian_LOD0_Material_1_0",
      "primitives": [
        {
          "attributes": {
            "NORMAL": 1,
            "POSITION": 0,
            "TEXCOORD_0": 2
          },
          "indices": 3,
          "material": 0,
          "mode": 4
        }
      ]
    },
    {
      "name": "chr_m_190_chr_m_189_0",
      "primitives": [
        {
          "attributes": {
            "NORMAL": 5,
            "POSITION": 4,
            "TEXCOORD_0": 6
          },
          "indices": 7,
          "material": 1,
          "mode": 4
        }
      ]
    }
  ],
  "nodes": [
    {
      "children": [
        1
      ],
      "name": "RootNode (gltf orientation matrix)",
      "rotation": [
        -0.70710678118654746,
        -0,
        -0,
        0.70710678118654757
      ]
    },
    {
      "children": [
        2
      ],
      "name": "RootNode (model correction matrix)"
    },
    {
      "children": [
        3
      ],
      "matrix": [
        1,
        0,
        0,
        0,
        0,
        0,
        1,
        0,
        0,
        -1,
        0,
        0,
        0,
        0,
        0,
        1
      ],
      "name": "ZombieGeo.fbx"
    },
    {
      "children": [
        4,
        6
      ],
      "name": "RootNode"
    },
    {
      "children": [
        5
      ],
      "matrix": [
        100,
        0,
        0,
        0,
        0,
        -1.6292067939183141e-05,
        -99.999999999998678,
        0,
        0,
        99.999999999998678,
        -1.6292067939183141e-05,
        0,
        0,
        0,
        0,
        1
      ],
      "name": "Char_Geonosian_LOD0"
    },
    {
      "mesh": 0,
      "name": "Char_Geonosian_LOD0_Material_1_0"
    },
    {
      "children": [
        7
      ],
      "matrix": [
        100,
        0,
        0,
        0,
        0,
        -1.6292067939183141e-05,
        -99.999999999998678,
        0,
        0,
        99.999999999998678,
        -1.6292067939183141e-05,
        0,
        0,
        0,
        0,
        1
      ],
      "name": "chr_m_190"
    },
    {
      "mesh": 1,
      "name": "chr_m_190_chr_m_189_0"
    }
  ],
  "samplers": [
    {
      "magFilter": 9729,
      "minFilter": 9987,
      "wrapS": 10497,
      "wrapT": 10497
    }
  ],
  "scene": 0,
  "scenes": [
    {
      "name": "OSG_Scene",
      "nodes": [
        0
      ]
    }
  ],
  "textures": [
    {
      "sampler": 0,
      "source": 0
    },
    {
      "sampler": 0,
      "source": 1
    }
  ]
}

